Coordinates
version=1
nRows=65
nColumns=12
inDegrees=yes

Units are S.I. units (second, meters, Newtons, ...)
Angles are in degrees

endheader
time	SC_y	SC_z	SC_x	AC_y	AC_z	AC_x	GH_y	GH_z	GH_yy	EL_x	PS_y
       0.0              -57.09          11.71          67.06          46.67        -0.2275          12.27         -2.982         -14.68         -2.417          117.3          107.4
   0.04176              -57.09          11.71          67.06          46.67        -0.2269          12.27         -2.999         -14.68         -2.417          117.3          107.4
   0.08351              -57.09          11.71          67.05          46.67        -0.2262          12.27         -3.018         -14.68         -2.417          117.2          107.4
    0.1253              -57.08          11.72          67.04          46.68        -0.2255          12.27         -3.038         -14.68         -2.417          117.2          107.4
     0.167              -57.08          11.72          67.03          46.68        -0.2247          12.27          -3.06         -14.68         -2.417          117.2          107.4
    0.2088              -57.07          11.73          67.03          46.68        -0.2239          12.27         -3.082         -14.68         -2.417          117.2          107.4
    0.2505              -57.07          11.73          67.02          46.68         -0.223          12.27         -3.106         -14.68         -2.418          117.2          107.4
    0.2923              -57.06          11.73          67.01          46.68        -0.2221          12.27         -3.132         -14.68         -2.418          117.2          107.4
    0.3341              -57.06          11.74           67.0          46.68        -0.2211          12.27          -3.16         -14.68         -2.418          117.2          107.4
    0.3758              -57.05          11.74          66.99          46.69          -0.22          12.27          -3.19         -14.68         -2.418          117.2          107.4
    0.4176              -57.05          11.75          66.98          46.69        -0.2189          12.27         -3.222         -14.68         -2.419          117.1          107.4
    0.4593              -57.04          11.76          66.96          46.69        -0.2176          12.27         -3.256         -14.68         -2.419          117.1          107.4
    0.5011              -57.03          11.76          66.95          46.69        -0.2163          12.27         -3.293         -14.68         -2.419          117.1          107.4
    0.5428              -57.03          11.77          66.93           46.7        -0.2149          12.27         -3.333         -14.68          -2.42          117.1          107.4
    0.5846              -57.02          11.78          66.92           46.7        -0.2133          12.27         -3.376         -14.68          -2.42          117.1          107.4
    0.6264              -57.01          11.79           66.9           46.7        -0.2116          12.27         -3.423         -14.68          -2.42          117.0          107.4
    0.6681               -57.0           11.8          66.88           46.7        -0.2098          12.27         -3.475         -14.68         -2.421          117.0          107.4
    0.7099              -56.99          11.81          66.86          46.71        -0.2078          12.28          -3.53         -14.68         -2.421          117.0          107.4
    0.7516              -56.98          11.82          66.84          46.71        -0.2056          12.28         -3.591         -14.68         -2.422          116.9          107.4
    0.7934              -56.97          11.83          66.81          46.72        -0.2032          12.28         -3.657         -14.68         -2.422          116.9          107.4
    0.8351              -56.95          11.84          66.79          46.72        -0.2006          12.28          -3.73         -14.68         -2.423          116.9          107.4
    0.8769              -56.94          11.86          66.76          46.73        -0.1977          12.28         -3.811         -14.68         -2.423          116.8          107.4
    0.9187              -56.92          11.87          66.73          46.73        -0.1945          12.28           -3.9         -14.68         -2.424          116.8          107.4
    0.9604               -56.9          11.89          66.69          46.74        -0.1909          12.28         -3.998         -14.67         -2.425          116.7          107.4
     1.002              -56.88          11.91          66.65          46.75         -0.187          12.28         -4.107         -14.67         -2.426          116.7          107.4
     1.044              -56.86          11.93           66.6          46.75        -0.1826          12.28         -4.229         -14.67         -2.427          116.6          107.4
     1.086              -56.83          11.96          66.55          46.76        -0.1777          12.28         -4.366         -14.67         -2.428          116.5          107.4
     1.127              -56.81          11.98           66.5          46.77        -0.1722          12.28          -4.52         -14.67         -2.429          116.5          107.4
     1.169              -56.77          12.01          66.43          46.79        -0.1659          12.28         -4.693         -14.67         -2.431          116.4          107.4
     1.211              -56.74          12.05          66.36           46.8        -0.1588          12.28         -4.891         -14.67         -2.432          116.3          107.5
     1.253               -56.7          12.09          66.28          46.81        -0.1507          12.28         -5.116         -14.67         -2.434          116.2          107.5
     1.294              -56.65          12.14          66.18          46.83        -0.1414          12.28         -5.374         -14.67         -2.436          116.0          107.5
     1.336              -56.59          12.19          66.07          46.85        -0.1307          12.28         -5.672         -14.67         -2.439          115.9          107.5
     1.378              -56.53          12.25          65.95          46.87        -0.1183          12.28         -6.019         -14.66         -2.442          115.7          107.5
      1.42              -56.45          12.33           65.8           46.9        -0.1037          12.29         -6.424         -14.66         -2.445          115.5          107.5
     1.461              -56.36          12.41          65.62          46.93       -0.08647          12.29         -6.902         -14.66         -2.449          115.2          107.5
     1.503              -56.26          12.51          65.41          46.97       -0.06604          12.29         -7.471         -14.66         -2.454          114.9          107.5
     1.545              -56.13          12.64          65.16          47.01       -0.04155          12.29         -8.152         -14.65         -2.459          114.6          107.5
     1.587              -55.98          12.78          64.86          47.07       -0.01191          12.29         -8.975         -14.65         -2.466          114.1          107.5
     1.629              -55.79          12.96          64.49          47.13        0.02429           12.3         -9.982         -14.64         -2.475          113.6          107.5
      1.67              -55.56          13.19          64.03          47.22        0.06896           12.3         -11.22         -14.64         -2.485          113.0          107.5
     1.712              -55.27          13.47          63.47          47.32         0.1247          12.31         -12.77         -14.63         -2.498          112.2          107.5
     1.754              -54.91          13.82          62.75          47.45         0.1949          12.31         -14.72         -14.62         -2.514          111.2          107.5
     1.796              -54.44          14.26          61.84          47.61         0.2841          12.32          -17.2         -14.61         -2.535          109.9          107.5
     1.837              -53.85          14.83          60.67          47.82         0.3983          12.33         -20.38         -14.59         -2.561          108.2          107.5
     1.879               -53.1          15.56          59.17          48.09         0.5448          12.35         -24.45         -14.57         -2.595          106.1          107.5
     1.921              -52.13           16.5          57.26          48.43          0.732          12.37         -29.66         -14.55         -2.638          103.4          107.5
     1.963              -50.91          17.67          54.86          48.86         0.9674          12.39          -36.2         -14.51         -2.692          100.0          107.5
     2.004              -49.42           19.1          51.93          49.38          1.254          12.42         -44.18         -14.47         -2.758          95.85          107.6
     2.046               -47.7          20.76          48.53          49.99          1.587          12.45         -53.42         -14.43         -2.835          91.05          107.6
     2.088              -45.84          22.56          44.85          50.65          1.947          12.48         -63.43         -14.38         -2.918          85.85          107.6
      2.13              -43.98          24.35          41.18          51.31          2.307          12.52         -73.44         -14.32         -3.001          80.65          107.6
     2.171              -42.26          26.01          37.78          51.92          2.639          12.55         -82.68         -14.28         -3.078          75.84          107.7
     2.213              -40.77          27.45          34.85          52.44          2.926          12.58         -90.65         -14.24         -3.144           71.7          107.7
     2.255              -39.55          28.62          32.45          52.87          3.161           12.6          -97.2          -14.2         -3.198           68.3          107.7
     2.297              -38.58          29.55          30.53          53.22          3.348          12.62         -102.4         -14.18         -3.241          65.59          107.7
     2.338              -37.83          30.29          29.04          53.48          3.495          12.63         -106.5         -14.16         -3.275          63.48          107.7
      2.38              -37.23          30.86          27.87          53.69          3.609          12.64         -109.7         -14.14         -3.301          61.83          107.7
     2.422              -36.77           31.3          26.96          53.86          3.698          12.65         -112.1         -14.13         -3.322          60.54          107.7
     2.464              -36.41          31.65          26.24          53.98          3.769          12.66         -114.1         -14.12         -3.338          59.52          107.8
     2.505              -36.12          31.93          25.67          54.09          3.824          12.66         -115.6         -14.11         -3.351          58.72          107.8
     2.547              -35.89          32.15          25.22          54.17          3.869          12.67         -116.9         -14.11         -3.361          58.07          107.8
     2.589               -35.7          32.33          24.85          54.23          3.905          12.67         -117.9          -14.1         -3.369          57.55          107.8
     2.631              -35.55          32.48          24.54          54.29          3.935          12.67         -118.7          -14.1         -3.376          57.12          107.8
     2.672              -35.42           32.6          24.29          54.33          3.959          12.67         -119.4         -14.09         -3.382          56.77          107.8
